<svg xmlns="http://www.w3.org/2000/svg" xmlns:xlink="http://www.w3.org/1999/xlink" xmlns:inkscape="http://www.inkscape.org/namespaces/inkscape" version="1.1" width="172.5" height="540" viewBox="0 0 172.5 540">
<defs>
<clipPath id="clip_1">
<path transform="matrix(.24,0,0,.24,0,0)" d="M0 0H718.75V2250H0Z" clip-rule="evenodd"/>
</clipPath>
<clipPath id="clip_2">
<path transform="matrix(.24,0,0,.24,0,0)" d="M0 0H718.75V2250H0Z" clip-rule="evenodd"/>
</clipPath>
<clipPath id="clip_3">
<path transform="matrix(.24,0,0,.24,0,0)" d="M494.14564 1.1280518H718.75V451.12806H494.14564Z" clip-rule="evenodd"/>
</clipPath>
<clipPath id="clip_4">
<path transform="matrix(.24,0,0,.24,0,0)" d="M0 0H718.75V2250H0Z"/>
</clipPath>
<clipPath id="clip_5">
<path transform="matrix(.24,0,0,.24,0,0)" d="M0 0H718.75V2250H0Z"/>
</clipPath>
<clipPath id="clip_6">
<path transform="matrix(.24,0,0,.24,0,0)" d="M-293.79374 102.282718H620.3335V379.2254H-293.79374Z"/>
</clipPath>
<clipPath id="clip_7">
<path transform="matrix(.24,0,0,.24,0,0)" d="M612.0801 286.8613C616.4971 272.66319 619.3954 256.5217 619.3954 240.67949 619.3954 224.83679 616.91079 209.59215 612.49368 195.5437 612.35586 195.24439 612.35586 194.9456 612.218 194.64682 594.55007 141.8887 547.896 103.02994 480.01579 102.282718H-293.79374V379.2254H479.44157C548.17178 378.47813 594.8263 340.2173 612.0801 286.8613Z"/>
</clipPath>
<clipPath id="clip_8">
<path transform="matrix(.24,0,0,.24,0,24.48)" d="M0 0H620V278H0Z"/>
</clipPath>
<clipPath id="clip_9">
<path transform="matrix(.24,0,0,.24,0,0)" d="M0 0H718.75V2250H0Z"/>
</clipPath>
<clipPath id="clip_10">
<path transform="matrix(.24,0,0,.24,0,0)" d="M0 0H718.75V2250H0Z"/>
</clipPath>
<clipPath id="clip_11">
<path transform="matrix(.24,0,0,.24,0,0)" d="M179.8628 682.44766H718.71237V840.0996H179.8628Z"/>
</clipPath>
<clipPath id="clip_12">
<path transform="matrix(.24,0,0,.24,0,0)" d="M184.03272 735.0267C181.74512 743.1091 180.24408 752.2978 180.24408 761.31607 180.24408 770.33468 181.53095 779.0128 183.81848 787.01 183.8899 787.1804 183.8899 787.35049 183.9613 787.52059 193.11151 817.5536 217.27368 839.67428 253.8844 840.0996H718.71237V682.44766H254.22937C217.13086 682.87307 192.96845 704.6533 184.03272 735.0267Z"/>
</clipPath>
<clipPath id="clip_13">
<path transform="matrix(.24,0,0,.24,43.2,163.68)" d="M0 0H539V159H0Z"/>
</clipPath>
<clipPath id="clip_14">
<path transform="matrix(.24,0,0,.24,0,0)" d="M0 0H718.75V2250H0Z"/>
</clipPath>
<clipPath id="clip_15">
<path transform="matrix(.24,0,0,.24,0,0)" d="M0 0H718.75V2250H0Z"/>
</clipPath>
<clipPath id="clip_16">
<path transform="matrix(.24,0,0,.24,0,0)" d="M179.8628 903.98849H718.71237V1061.6404H179.8628Z"/>
</clipPath>
<clipPath id="clip_17">
<path transform="matrix(.24,0,0,.24,0,0)" d="M184.03272 956.5675C181.74512 964.6499 180.24408 973.8386 180.24408 982.8569 180.24408 991.8755 181.53095 1000.55368 183.81848 1008.55087 183.8899 1008.7212 183.8899 1008.8913 183.9613 1009.0614 193.11151 1039.0944 217.27368 1061.2151 253.8844 1061.6404H718.71237V903.98849H254.22937C217.13086 904.4139 192.96845 926.19418 184.03272 956.5675Z"/>
</clipPath>
<clipPath id="clip_18">
<path transform="matrix(.24,0,0,.24,43.2,216.72)" d="M0 0H539V159H0Z"/>
</clipPath>
<clipPath id="clip_19">
<path transform="matrix(.24,0,0,.24,0,0)" d="M0 0H718.75V2250H0Z"/>
</clipPath>
<clipPath id="clip_20">
<path transform="matrix(.24,0,0,.24,0,0)" d="M0 0H718.75V2250H0Z"/>
</clipPath>
<clipPath id="clip_21">
<path transform="matrix(.24,0,0,.24,0,0)" d="M179.8628 1125.4147H718.71237V1283.0667H179.8628Z"/>
</clipPath>
<clipPath id="clip_22">
<path transform="matrix(.24,0,0,.24,0,0)" d="M184.03272 1177.9938C181.74512 1186.0762 180.24408 1195.2648 180.24408 1204.2831 180.24408 1213.3018 181.53095 1221.9799 183.81848 1229.977 183.8899 1230.1475 183.8899 1230.3175 183.9613 1230.4876 193.11151 1260.5206 217.27368 1282.6414 253.8844 1283.0667H718.71237V1125.4147H254.22937C217.13086 1125.8401 192.96845 1147.6204 184.03272 1177.9938Z"/>
</clipPath>
<clipPath id="clip_23">
<path transform="matrix(.24,0,0,.24,43.2,270)" d="M0 0H539V159H0Z"/>
</clipPath>
<clipPath id="clip_24">
<path transform="matrix(.24,0,0,.24,0,0)" d="M0 0H718.75V2250H0Z"/>
</clipPath>
<clipPath id="clip_25">
<path transform="matrix(.24,0,0,.24,0,0)" d="M0 0H718.75V2250H0Z"/>
</clipPath>
<clipPath id="clip_26">
<path transform="matrix(.24,0,0,.24,0,0)" d="M179.8628 1346.9556H718.71237V1504.6076H179.8628Z"/>
</clipPath>
<clipPath id="clip_27">
<path transform="matrix(.24,0,0,.24,0,0)" d="M184.03272 1399.5347C181.74512 1407.6171 180.24408 1416.8057 180.24408 1425.824 180.24408 1434.8427 181.53095 1443.5208 183.81848 1451.518 183.8899 1451.6884 183.8899 1451.8584 183.9613 1452.0285 193.11151 1482.0615 217.27368 1504.1821 253.8844 1504.6076H718.71237V1346.9556H254.22937C217.13086 1347.381 192.96845 1369.1613 184.03272 1399.5347Z"/>
</clipPath>
<clipPath id="clip_28">
<path transform="matrix(.24,0,0,.24,43.2,323.03999)" d="M0 0H539V159H0Z"/>
</clipPath>
<clipPath id="clip_29">
<path transform="matrix(.24,0,0,.24,0,0)" d="M0 0H718.75V2250H0Z"/>
</clipPath>
<clipPath id="clip_30">
<path transform="matrix(.24,0,0,.24,0,0)" d="M0 0H718.75V2250H0Z"/>
</clipPath>
<clipPath id="clip_31">
<path transform="matrix(.24,0,0,.24,0,0)" d="M179.8628 1568.3818H718.71237V1726.0338H179.8628Z"/>
</clipPath>
<clipPath id="clip_32">
<path transform="matrix(.24,0,0,.24,0,0)" d="M184.03272 1620.9609C181.74512 1629.0433 180.24408 1638.2319 180.24408 1647.2503 180.24408 1656.2689 181.53095 1664.947 183.81848 1672.9442 183.8899 1673.1146 183.8899 1673.2847 183.9613 1673.4547 193.11151 1703.4878 217.27368 1725.6084 253.8844 1726.0338H718.71237V1568.3818H254.22937C217.13086 1568.8073 192.96845 1590.5875 184.03272 1620.9609Z"/>
</clipPath>
<clipPath id="clip_33">
<path transform="matrix(.24,0,0,.24,43.2,376.31999)" d="M0 0H539V159H0Z"/>
</clipPath>
<clipPath id="clip_34">
<path transform="matrix(.24,0,0,.24,0,0)" d="M0 0H718.75V2250H0Z"/>
</clipPath>
<clipPath id="clip_35">
<path transform="matrix(.24,0,0,.24,0,0)" d="M0 0H718.75V2250H0Z"/>
</clipPath>
<clipPath id="clip_36">
<path transform="matrix(.24,0,0,.24,0,0)" d="M481.7709 1797.9445H600.2809V1916.4545H481.7709Z"/>
</clipPath>
<clipPath id="clip_37">
<path transform="matrix(.24,0,0,.24,0,0)" d="M541.0259 1797.9445C508.30027 1797.9445 481.7709 1824.4739 481.7709 1857.1995 481.7709 1889.925 508.30027 1916.4545 541.0259 1916.4545 573.7515 1916.4545 600.2809 1889.925 600.2809 1857.1995 600.2809 1824.4739 573.7515 1797.9445 541.0259 1797.9445Z"/>
</clipPath>
<clipPath id="clip_38">
<path transform="matrix(.24,0,0,.24,115.439998,431.28)" d="M0 0H120V120H0Z"/>
</clipPath>
<clipPath id="clip_39">
<path transform="matrix(.24,0,0,.24,0,0)" d="M0 0H718.75V2250H0Z"/>
</clipPath>
<clipPath id="clip_40">
<path transform="matrix(.24,0,0,.24,0,0)" d="M0 0H718.75V2250H0Z"/>
</clipPath>
<clipPath id="clip_41">
<path transform="matrix(.24,0,0,.24,0,0)" d="M518.57968 1834.7532H563.47219V1879.6458H518.57968Z"/>
</clipPath>
<clipPath id="clip_42">
<path transform="matrix(.24,0,0,.24,0,0)" d="M541.02597 1834.7532C528.6292 1834.7532 518.57968 1844.8027 518.57968 1857.1995 518.57968 1869.5962 528.6292 1879.6458 541.02597 1879.6458 553.42269 1879.6458 563.47219 1869.5962 563.47219 1857.1995 563.47219 1844.8027 553.42269 1834.7532 541.02597 1834.7532Z"/>
</clipPath>
<clipPath id="clip_43">
<path transform="matrix(.24,0,0,.24,124.32,440.16)" d="M0 0H46V46H0Z"/>
</clipPath>
<clipPath id="clip_44">
<path transform="matrix(.24,0,0,.24,0,0)" d="M0 1738.5037H280.46876V2054.1287H0Z" clip-rule="evenodd"/>
</clipPath>
<clipPath id="clip_45">
<path transform="matrix(.24,0,0,.24,0,0)" d="M0 0H718.75V2250H0Z"/>
</clipPath>
<clipPath id="clip_46">
<path transform="matrix(.24,0,0,.24,0,0)" d="M0 0H718.75V2250H0Z"/>
</clipPath>
<clipPath id="clip_47">
<path transform="matrix(.24,0,0,.24,0,0)" d="M217.99469 1858.7734H758.00527V1951.5537H217.99469Z"/>
</clipPath>
<clipPath id="clip_48">
<path transform="matrix(.24,0,0,.24,0,0)" d="M754.0023 1920.6102C756.29556 1915.8536 757.80038 1910.4459 757.80038 1905.1386 757.80038 1899.831 756.51028 1894.7238 754.21707 1890.0173 754.14547 1889.9171 754.14547 1889.817 754.07388 1889.7169 744.90097 1872.042 720.6788 1859.0237 683.9771 1858.7734H233.61969C224.99024 1858.7734 217.99469 1865.7689 217.99469 1874.3984V1935.9287C217.99469 1944.5581 224.99024 1951.5537 233.61969 1951.5537H683.6313C720.82199 1951.3034 745.0444 1938.4854 754.0023 1920.6102Z"/>
</clipPath>
<clipPath id="clip_49">
<path transform="matrix(.24,0,0,.24,52.079999,445.91999)" d="M0 0H502V94H0Z"/>
</clipPath>
<clipPath id="clip_50">
<path transform="matrix(.24,0,0,.24,0,0)" d="M0 0H718.75V2250H0Z"/>
</clipPath>
<clipPath id="clip_51">
<path transform="matrix(.24,0,0,.24,0,0)" d="M0 0H718.75V2250H0Z"/>
</clipPath>
<clipPath id="clip_52">
<path transform="matrix(.24,0,0,.24,0,0)" d="M52.80773 715.041H162.81726V825.05056H52.80773Z"/>
</clipPath>
<clipPath id="clip_53">
<path transform="matrix(.24,0,0,.24,0,0)" d="M107.8125 715.041C77.434207 715.041 52.80773 739.6675 52.80773 770.0458 52.80773 800.4241 77.434207 825.05056 107.8125 825.05056 138.1908 825.05056 162.81726 800.4241 162.81726 770.0458 162.81726 739.6675 138.1908 715.041 107.8125 715.041Z"/>
</clipPath>
<clipPath id="clip_54">
<path transform="matrix(.24,0,0,.24,12.48,171.59999)" d="M0 0H111V111H0Z"/>
</clipPath>
<clipPath id="clip_55">
<path transform="matrix(.24,0,0,.24,0,0)" d="M0 0H718.75V2250H0Z"/>
</clipPath>
<clipPath id="clip_56">
<path transform="matrix(.24,0,0,.24,0,0)" d="M0 0H718.75V2250H0Z"/>
</clipPath>
<clipPath id="clip_57">
<path transform="matrix(.24,0,0,.24,0,0)" d="M52.80773 926.18936H162.81726V1036.1989H52.80773Z"/>
</clipPath>
<clipPath id="clip_58">
<path transform="matrix(.24,0,0,.24,0,0)" d="M107.8125 926.18936C77.434207 926.18936 52.80773 950.8158 52.80773 981.1941 52.80773 1011.5724 77.434207 1036.1989 107.8125 1036.1989 138.1908 1036.1989 162.81726 1011.5724 162.81726 981.1941 162.81726 950.8158 138.1908 926.18936 107.8125 926.18936Z"/>
</clipPath>
<clipPath id="clip_59">
<path transform="matrix(.24,0,0,.24,12.48,222.23999)" d="M0 0H111V111H0Z"/>
</clipPath>
<clipPath id="clip_60">
<path transform="matrix(.24,0,0,.24,0,0)" d="M0 0H718.75V2250H0Z"/>
</clipPath>
<clipPath id="clip_61">
<path transform="matrix(.24,0,0,.24,0,0)" d="M0 0H718.75V2250H0Z"/>
</clipPath>
<clipPath id="clip_62">
<path transform="matrix(.24,0,0,.24,0,0)" d="M52.80773 1157.835H162.81726V1267.8445H52.80773Z"/>
</clipPath>
<clipPath id="clip_63">
<path transform="matrix(.24,0,0,.24,0,0)" d="M107.8125 1157.835C77.434207 1157.835 52.80773 1182.4614 52.80773 1212.8397 52.80773 1243.218 77.434207 1267.8445 107.8125 1267.8445 138.1908 1267.8445 162.81726 1243.218 162.81726 1212.8397 162.81726 1182.4614 138.1908 1157.835 107.8125 1157.835Z"/>
</clipPath>
<clipPath id="clip_64">
<path transform="matrix(.24,0,0,.24,12.48,277.68)" d="M0 0H111V111H0Z"/>
</clipPath>
<clipPath id="clip_65">
<path transform="matrix(.24,0,0,.24,0,0)" d="M0 0H718.75V2250H0Z"/>
</clipPath>
<clipPath id="clip_66">
<path transform="matrix(.24,0,0,.24,0,0)" d="M0 0H718.75V2250H0Z"/>
</clipPath>
<clipPath id="clip_67">
<path transform="matrix(.24,0,0,.24,0,0)" d="M52.80773 1378.3894H162.81726V1488.3989H52.80773Z"/>
</clipPath>
<clipPath id="clip_68">
<path transform="matrix(.24,0,0,.24,0,0)" d="M107.8125 1378.3894C77.434207 1378.3894 52.80773 1403.0159 52.80773 1433.3942 52.80773 1463.7725 77.434207 1488.3989 107.8125 1488.3989 138.1908 1488.3989 162.81726 1463.7725 162.81726 1433.3942 162.81726 1403.0159 138.1908 1378.3894 107.8125 1378.3894Z"/>
</clipPath>
<clipPath id="clip_69">
<path transform="matrix(.24,0,0,.24,12.48,330.72)" d="M0 0H111V111H0Z"/>
</clipPath>
<clipPath id="clip_70">
<path transform="matrix(.24,0,0,.24,0,0)" d="M0 0H718.75V2250H0Z"/>
</clipPath>
<clipPath id="clip_71">
<path transform="matrix(.24,0,0,.24,0,0)" d="M0 0H718.75V2250H0Z"/>
</clipPath>
<clipPath id="clip_72">
<path transform="matrix(.24,0,0,.24,0,0)" d="M52.80773 1586.7223H162.81726V1696.7318H52.80773Z"/>
</clipPath>
<clipPath id="clip_73">
<path transform="matrix(.24,0,0,.24,0,0)" d="M107.8125 1586.7223C77.434207 1586.7223 52.80773 1611.3488 52.80773 1641.727 52.80773 1672.1054 77.434207 1696.7318 107.8125 1696.7318 138.1908 1696.7318 162.81726 1672.1054 162.81726 1641.727 162.81726 1611.3488 138.1908 1586.7223 107.8125 1586.7223Z"/>
</clipPath>
<clipPath id="clip_74">
<path transform="matrix(.24,0,0,.24,12.48,380.63999)" d="M0 0H111V111H0Z"/>
</clipPath>
<clipPath id="clip_75">
<path transform="matrix(.24,0,0,.24,0,0)" d="M0 0H718.75V2250H0Z"/>
</clipPath>
<clipPath id="clip_76">
<path transform="matrix(.24,0,0,.24,0,0)" d="M0 0H718.75V2250H0Z"/>
</clipPath>
<clipPath id="clip_77">
<path transform="matrix(.24,0,0,.24,0,0)" d="M529.1969 266.04478H642.4447V379.29255H529.1969Z"/>
</clipPath>
<clipPath id="clip_78">
<path transform="matrix(.24,0,0,.24,0,0)" d="M585.8208 266.04478C554.5483 266.04478 529.1969 291.39616 529.1969 322.66865 529.1969 353.94117 554.5483 379.29255 585.8208 379.29255 617.09329 379.29255 642.4447 353.94117 642.4447 322.66865 642.4447 291.39616 617.09329 266.04478 585.8208 266.04478Z"/>
</clipPath>
<clipPath id="clip_79">
<path transform="matrix(.24,0,0,.24,126.96,63.84)" d="M0 0H114V114H0Z"/>
</clipPath>
<clipPath id="clip_80">
<path transform="matrix(.24,0,0,.24,0,0)" d="M0 0H718.75V2250H0Z" clip-rule="evenodd"/>
</clipPath>
<clipPath id="clip_81">
<path transform="matrix(.24,0,0,.24,20.16,178.31999)" d="M0 0H48V53H0Z" clip-rule="evenodd"/>
</clipPath>
<clipPath id="clip_82">
<path transform="matrix(.24,0,0,.24,19.92,228.95999)" d="M0 0H49V53H0Z" clip-rule="evenodd"/>
</clipPath>
<clipPath id="clip_83">
<path transform="matrix(.24,0,0,.24,19.68,284.63999)" d="M0 0H51V53H0Z" clip-rule="evenodd"/>
</clipPath>
<clipPath id="clip_84">
<path transform="matrix(.24,0,0,.24,19.68,337.44)" d="M0 0H52V54H0Z" clip-rule="evenodd"/>
</clipPath>
<clipPath id="clip_85">
<path transform="matrix(.24,0,0,.24,19.68,387.6)" d="M0 0H51V53H0Z" clip-rule="evenodd"/>
</clipPath>
<clipPath id="clip_86">
<path transform="matrix(.24,0,0,.24,12.48,30.72)" d="M0 0H484V226H0Z" clip-rule="evenodd"/>
</clipPath>
<clipPath id="clip_87">
<path transform="matrix(.24,0,0,.24,0,0)" d="M0 0H718.75V2250H0Z"/>
</clipPath>
<clipPath id="clip_88">
<path transform="matrix(.24,0,0,.24,0,0)" d="M0 0H718.75V2250H0Z"/>
</clipPath>
<clipPath id="clip_89">
<path transform="matrix(.24,0,0,.24,0,0)" d="M564.3712 301.2191H607.2704V344.11827H564.3712Z"/>
</clipPath>
<clipPath id="clip_90">
<path transform="matrix(.24,0,0,.24,0,0)" d="M585.8208 301.2191C573.97457 301.2191 564.3712 310.8224 564.3712 322.66868 564.3712 334.51496 573.97457 344.11827 585.8208 344.11827 597.66708 344.11827 607.2704 334.51496 607.2704 322.66868 607.2704 310.8224 597.66708 301.2191 585.8208 301.2191Z"/>
</clipPath>
<clipPath id="clip_91">
<path transform="matrix(.24,0,0,.24,135.36,72.24)" d="M0 0H44V44H0Z"/>
</clipPath>
<clipPath id="clip_92">
<path transform="matrix(.24,0,0,.24,0,0)" d="M0 0H718.75V2250H0Z" clip-rule="evenodd"/>
</clipPath>
<clipPath id="clip_93">
<path transform="matrix(.24,0,0,.24,67.2,167.51999)" d="M0 0H385V134H0Z" clip-rule="evenodd"/>
</clipPath>
<clipPath id="clip_94">
<path transform="matrix(.24,0,0,.24,65.52,219.84)" d="M0 0H384V135H0Z" clip-rule="evenodd"/>
</clipPath>
<clipPath id="clip_95">
<path transform="matrix(.24,0,0,.24,67.2,272.63999)" d="M0 0H340V135H0Z" clip-rule="evenodd"/>
</clipPath>
<clipPath id="clip_96">
<path transform="matrix(.24,0,0,.24,67.2,330.47999)" d="M0 0H371V89H0Z" clip-rule="evenodd"/>
</clipPath>
<clipPath id="clip_97">
<path transform="matrix(.24,0,0,.24,67.2,384)" d="M0 0H368V88H0Z" clip-rule="evenodd"/>
</clipPath>
<clipPath id="clip_98">
<path transform="matrix(.24,0,0,.24,57.12,448.08)" d="M0 0H468V76H0Z" clip-rule="evenodd"/>
</clipPath>
<clipPath id="clip_99">
<path transform="matrix(.24,0,0,.24,0,0)" d="M0 0H718.75V2250H0Z"/>
</clipPath>
<clipPath id="clip_100">
<path transform="matrix(.24,0,0,.24,0,0)" d="M0 0H718.75V2250H0Z"/>
</clipPath>
<clipPath id="clip_101">
<path transform="matrix(.24,0,0,.24,0,0)" d="M99.93524 460.27976H613.5072V610.53628H99.93524Z"/>
</clipPath>
<clipPath id="clip_102">
<path transform="matrix(.24,0,0,.24,0,0)" d="M103.909519 510.3923C101.72925 518.0956 100.298648 526.8532 100.298648 535.4484 100.298648 544.044 101.525089 552.31509 103.70535 559.9371 103.77341 560.0995 103.77341 560.2616 103.84143 560.4237 112.56244 589.04788 135.59116 610.13088 170.48447 610.53628H538.37899C579.87118 610.53628 613.5072 576.90017 613.5072 535.408 613.5072 493.9158 579.87118 460.27976 538.37899 460.27976H170.81327C135.45502 460.68519 112.42609 481.4438 103.909519 510.3923Z"/>
</clipPath>
<clipPath id="clip_103">
<path transform="matrix(.24,0,0,.24,24,110.399997)" d="M0 0H514V151H0Z"/>
</clipPath>
<clipPath id="clip_104">
<path transform="matrix(.24,0,0,.24,0,0)" d="M0 0H718.75V2250H0Z" clip-rule="evenodd"/>
</clipPath>
<clipPath id="clip_105">
<path transform="matrix(.24,0,0,.24,38.879999,119.04)" d="M0 0H383V85H0Z" clip-rule="evenodd"/>
</clipPath>
<clipPath id="clip_106">
<path transform="matrix(.24,0,0,.24,0,0)" d="M0 0H718.75V2250H0Z"/>
</clipPath>
<clipPath id="clip_107">
<path transform="matrix(.24,0,0,.24,0,0)" d="M0 0H718.75V2250H0Z"/>
</clipPath>
<clipPath id="clip_108">
<path transform="matrix(.24,0,0,.24,0,0)" d="M-163.12476 2020.2927H731.17416V2292.5169H-163.12476Z"/>
</clipPath>
<clipPath id="clip_109">
<path transform="matrix(.24,0,0,.24,0,0)" d="M-159.30506 2111.0833C-161.48529 2125.0394-162.91596 2140.9058-162.91596 2156.478-162.91596 2172.0509-161.68946 2187.036-159.50922 2200.845-159.44116 2201.1392-159.44116 2201.4329-159.37305 2201.7266-150.65216 2253.5858-127.62341 2291.7825-84.26965 2292.5169H731.17416V2020.2927H-83.66449C-127.75952 2021.0272-150.78845 2058.6363-159.30506 2111.0833Z"/>
</clipPath>
<clipPath id="clip_110">
<path transform="matrix(.24,0,0,.24,0,484.8)" d="M0 0H719V230H0Z"/>
</clipPath>
<clipPath id="clip_111">
<path transform="matrix(.24,0,0,.24,0,0)" d="M0 0H718.75V2250H0Z" clip-rule="evenodd"/>
</clipPath>
<clipPath id="clip_112">
<path transform="matrix(.24,0,0,.24,19.68,490.8)" d="M0 0H554V42H0Z" clip-rule="evenodd"/>
</clipPath>
<clipPath id="clip_113">
<path transform="matrix(.24,0,0,.24,1.92,506.63999)" d="M0 0H702V88H0Z" clip-rule="evenodd"/>
</clipPath>
</defs>
<g>
<g clip-path="url(#clip_1)">
<path transform="matrix(.75,0,0,.75,0,0)" d="M0 0H230V720H0Z" fill="#ffffff"/>
</g>
<g clip-path="url(#clip_2)">
<path transform="matrix(.75,0,0,.75,0,0)" d="M0 0H230V720H0Z" fill="#fdfdfd"/>
</g>
<g clip-path="url(#clip_3)">
<path transform="matrix(0,-.21401781,.21401781,0,118.59495,108.27073)" d="M12.33922 503.68498H0C0 435.78736 13.34961 369.80024 39.67769 307.5559 65.05683 247.55104 101.34244 193.70917 147.52654 147.52536 193.70822 101.34277 247.55042 65.05716 307.55769 39.676515 369.79966 13.34901 435.78614 0 503.68437 0V12.33922C437.44664 12.33922 373.07725 25.36047 312.36445 51.040864 253.82787 75.79943 201.30426 111.19695 156.25197 156.25046 111.196659 201.30518 75.799129 253.82878 51.04207 312.36265 25.36077 373.07786 12.339218 437.44786 12.339218 503.68498H12.33922Z" fill="#5189d4"/>
<path transform="matrix(0,-.21401781,.21401781,0,118.59495,108.27073)" d="M37.01765 503.68498H24.67843C24.67843 439.10774 37.37192 376.35487 62.406435 317.16999 86.541118 260.10685 121.05055 208.90119 164.97678 164.97556 208.9009 121.05113 260.10655 86.5414 317.1712 62.405214 376.35487 37.371606 439.10713 24.678421 503.6844 24.678421V37.01764C440.76765 37.01764 379.6331 49.38276 321.97798 73.76959 266.384 97.28369 216.49694 130.90535 173.70221 173.70099 130.90508 216.49723 97.28341 266.38429 73.77082 321.97676 49.38309 379.63246 37.01767 440.76823 37.01767 503.68498H37.01765Z" fill="#5189d4"/>
<path transform="matrix(0,-.21401781,.21401781,0,118.59495,108.27073)" d="M61.69608 503.68498H49.356859C49.356859 442.4287 61.394529 382.91069 85.13516 326.78413 108.02567 272.66236 140.75925 224.09328 182.4273 182.42583 224.09296 140.75959 272.66206 108.0257 326.7847 85.133998 382.91065 61.393957 442.4281 49.356897 503.6844 49.356897V61.696115C444.08863 61.696115 386.1883 73.40541 331.5915 96.498378 278.93955 118.76831 231.68903 150.6138 191.15247 191.15096 150.6138 231.68901 118.76801 278.93955 96.49959 331.59089 73.40573 386.1883 61.69613 444.08924 61.69613 503.685L61.69608 503.68498Z" fill="#5189d4"/>
<path transform="matrix(0,-.21401781,.21401781,0,118.59495,108.27073)" d="M86.37452 503.68498H74.0353C74.0353 445.74909 85.41684 389.46589 107.86391 336.3982 129.51087 285.21696 160.46886 239.28409 199.87754 199.87662 239.2841 160.46855 285.21638 129.51055 336.3982 107.862689 389.46647 85.41652 445.7497 74.03528 503.68437 74.03528V86.3745C447.40959 86.3745 392.74409 97.42767 341.20497 119.22706 291.4938 140.25283 246.87984 170.32276 208.60266 208.60173 170.32308 246.88011 140.25316 291.4944 119.228298 341.20494 97.42801 392.74345 86.37453 447.40956 86.37453 503.68495L86.37452 503.68498Z" fill="#5189d4"/>
<path transform="matrix(0,-.21401781,.21401781,0,118.59495,108.27073)" d="M111.05295 503.68498H98.71373C98.71373 449.0713 109.43945 396.02229 130.59265 346.01173 150.99515 297.7725 180.17726 254.47678 217.32778 217.32749 254.47556 180.17758 297.77128 150.99546 346.01173 130.59207 396.0211 109.43917 449.0701 98.71375 503.6844 98.71375V111.05297C450.7306 111.05297 399.2987 121.45033 350.81849 141.95644 304.04878 161.73775 262.07194 190.03179 226.05292 226.0526 190.0315 262.0728 161.73777 304.04997 141.95706 350.81849 121.45064 399.29994 111.05298 450.73179 111.05298 503.685L111.05295 503.68498Z" fill="#5189d4"/>
<path transform="matrix(0,-.21401781,.21401781,0,118.59495,108.27073)" d="M135.73139 503.68498H123.392169C123.392169 452.39106 133.46176 402.5769 153.3214 355.6258 172.47911 310.3292 199.88477 269.67 234.7774 234.77768 269.66764 199.88625 310.32679 172.48 355.6252 153.32077 402.5769 133.46144 452.39106 123.392139 503.6844 123.392139V135.73136C454.05158 135.73136 405.85453 145.47289 360.432 164.68514 316.6049 183.22258 277.264 209.74045 243.50287 243.50278 209.73934 277.26573 183.22147 316.60664 164.68582 360.43254 145.47298 405.85447 135.73145 454.0515 135.73145 503.68495L135.73139 503.68498Z" fill="#5189d4"/>
<path transform="matrix(0,-.21401781,.21401781,0,118.59495,108.27073)" d="M160.40982 503.68498H148.0706C148.0706 455.71266 157.48438 409.1327 176.05014 365.23933 193.9649 322.8829 219.59468 284.8603 252.22763 252.22794 284.86088 219.59439 322.8829 193.9646 365.2387 176.05014 409.1321 157.48438 455.71205 148.0706 503.68437 148.0706V160.40982C457.37193 160.40982 412.4097 169.49553 370.04548 187.4145 329.16099 204.70688 292.4566 229.44889 260.95307 260.95307 229.4492 292.45664 204.7072 329.16038 187.41452 370.04609 169.49555 412.4103 160.40984 457.37257 160.40984 503.685L160.40982 503.68498Z" fill="#5189d4"/>
<path transform="matrix(0,-.21401781,.21401781,0,118.59495,108.27073)" d="M185.08826 503.68498H172.74904C172.74904 459.03364 181.50669 415.68794 198.77889 374.8528 215.45038 335.43724 239.30399 300.05116 269.67787 269.67817 300.05174 239.30399 335.4372 215.45008 374.8522 198.77887 415.68733 181.50669 459.03303 172.74903 503.68437 172.74903V185.08824C460.6929 185.08824 418.9649 193.51784 379.65898 210.14325 341.71528 226.19237 307.64747 249.15819 278.40327 278.4033 249.15848 307.64689 226.19266 341.7147 210.14322 379.65959 193.5178 418.9655 185.08823 460.69355 185.08823 503.68498H185.08826Z" fill="#5189d4"/>
<path transform="matrix(0,-.21401781,.21401781,0,118.59495,108.27073)" d="M209.7667 503.68498H197.42748C197.42748 462.3546 205.5293 422.2437 221.50763 384.4663 236.93376 347.99394 259.0118 315.245 287.1281 287.12809 315.2438 259.0124 347.99275 236.93465 384.46574 221.50762 422.24314 205.5293 462.354 197.42746 503.6844 197.42746V209.76668C464.01454 209.76668 425.52076 217.54045 389.2725 232.87198 354.2702 247.67693 322.83955 268.86689 295.85353 295.85353 268.8657 322.84074 247.67575 354.2714 232.8723 389.27308 217.54047 425.52134 209.7667 464.0151 209.7667 503.68498Z" fill="#5189d4"/>
<path transform="matrix(0,-.21401781,.21401781,0,118.59495,108.27073)" d="M234.44483 503.68498H222.10591C222.10591 465.675 229.55162 428.79835 244.23607 394.07984 258.41896 360.54887 278.72084 330.43647 304.57835 304.57835 330.43647 278.7208 360.54887 258.41865 394.07984 244.23638 428.79835 229.55162 465.675 222.10591 503.68498 222.10591V234.44513C467.3349 234.44513 432.07594 241.56307 398.88658 255.60074 366.8263 269.16123 338.03218 288.57533 313.30375 313.30375 288.57533 338.03218 269.16093 366.8263 255.60103 398.88658 241.56276 432.07594 234.44483 467.33488 234.44483 503.68498Z" fill="#5189d4"/>
</g>
<g clip-path="url(#clip_4)">
<g clip-path="url(#clip_5)">
<g clip-path="url(#clip_6)">
<g clip-path="url(#clip_7)">
<g>
<g clip-path="url(#clip_8)">
<path transform="matrix(0,-.25963376,.25963376,0,-70.51049,91.0141)" d="M0 0H256V844H0Z" fill="#004aad"/>
</g>
</g>
</g>
</g>
</g>
</g>
<g clip-path="url(#clip_9)">
<g clip-path="url(#clip_10)">
<g clip-path="url(#clip_11)">
<g clip-path="url(#clip_12)">
<g>
<g clip-path="url(#clip_13)">
<path transform="matrix(0,.14779873,-.14779873,0,172.49095,163.78743)" d="M0 0H256V874H0Z" fill="#004aad"/>
</g>
</g>
</g>
</g>
</g>
</g>
<g clip-path="url(#clip_14)">
<g clip-path="url(#clip_15)">
<g clip-path="url(#clip_16)">
<g clip-path="url(#clip_17)">
<g>
<g clip-path="url(#clip_18)">
<path transform="matrix(0,.14779873,-.14779873,0,172.49095,216.95723)" d="M0 0H256V874H0Z" fill="#004aad"/>
</g>
</g>
</g>
</g>
</g>
</g>
<g clip-path="url(#clip_19)">
<g clip-path="url(#clip_20)">
<g clip-path="url(#clip_21)">
<g clip-path="url(#clip_22)">
<g>
<g clip-path="url(#clip_23)">
<path transform="matrix(0,.14779873,-.14779873,0,172.49095,270.09953)" d="M0 0H256V874H0Z" fill="#004aad"/>
</g>
</g>
</g>
</g>
</g>
</g>
<g clip-path="url(#clip_24)">
<g clip-path="url(#clip_25)">
<g clip-path="url(#clip_26)">
<g clip-path="url(#clip_27)">
<g>
<g clip-path="url(#clip_28)">
<path transform="matrix(0,.14779873,-.14779873,0,172.49095,323.26933)" d="M0 0H256V874H0Z" fill="#004aad"/>
</g>
</g>
</g>
</g>
</g>
</g>
<g clip-path="url(#clip_29)">
<g clip-path="url(#clip_30)">
<g clip-path="url(#clip_31)">
<g clip-path="url(#clip_32)">
<g>
<g clip-path="url(#clip_33)">
<path transform="matrix(0,.14779873,-.14779873,0,172.49095,376.41163)" d="M0 0H256V874H0Z" fill="#004aad"/>
</g>
</g>
</g>
</g>
</g>
</g>
<g clip-path="url(#clip_34)">
<g clip-path="url(#clip_35)">
<g clip-path="url(#clip_36)">
<g clip-path="url(#clip_37)">
<g>
<g clip-path="url(#clip_38)">
<path transform="matrix(.11110313,0,0,.11110313,115.625019,431.50669)" d="M0 0H256V256H0Z" fill="#5189d4"/>
</g>
</g>
</g>
</g>
</g>
</g>
<g clip-path="url(#clip_39)">
<g clip-path="url(#clip_40)">
<g clip-path="url(#clip_41)">
<g clip-path="url(#clip_42)">
<g>
<g clip-path="url(#clip_43)">
<path transform="matrix(.042086748,0,0,.042086748,124.459117,440.34077)" d="M0 0H256V256H0Z" fill="#fdfdfd"/>
</g>
</g>
</g>
</g>
</g>
</g>
<g clip-path="url(#clip_44)">
<path transform="matrix(0,.15075939,-.15075939,0,67.3125,417.24089)" d="M12.33922 503.68498H0C0 435.78736 13.34961 369.80024 39.67769 307.5559 65.05683 247.55104 101.34244 193.70917 147.52654 147.52536 193.70822 101.34277 247.55042 65.05716 307.55769 39.676515 369.79966 13.34901 435.78614 0 503.68437 0V12.33922C437.44664 12.33922 373.07725 25.36047 312.36445 51.040864 253.82787 75.79943 201.30426 111.19695 156.25197 156.25046 111.196659 201.30518 75.799129 253.82878 51.04207 312.36265 25.36077 373.07786 12.339218 437.44786 12.339218 503.68498H12.33922Z" fill="#5189d4"/>
<path transform="matrix(0,.15075939,-.15075939,0,67.3125,417.24089)" d="M37.01765 503.68498H24.67843C24.67843 439.10774 37.37192 376.35487 62.406435 317.16999 86.541118 260.10685 121.05055 208.90119 164.97678 164.97556 208.9009 121.05113 260.10655 86.5414 317.1712 62.405214 376.35487 37.371606 439.10713 24.678421 503.6844 24.678421V37.01764C440.76765 37.01764 379.6331 49.38276 321.97798 73.76959 266.384 97.28369 216.49694 130.90535 173.70221 173.70099 130.90508 216.49723 97.28341 266.38429 73.77082 321.97676 49.38309 379.63246 37.01767 440.76823 37.01767 503.68498H37.01765Z" fill="#5189d4"/>
<path transform="matrix(0,.15075939,-.15075939,0,67.3125,417.24089)" d="M61.69608 503.68498H49.356859C49.356859 442.4287 61.394529 382.91069 85.13516 326.78413 108.02567 272.66236 140.75925 224.09328 182.4273 182.42583 224.09296 140.75959 272.66206 108.0257 326.7847 85.133998 382.91065 61.393957 442.4281 49.356897 503.6844 49.356897V61.696115C444.08863 61.696115 386.1883 73.40541 331.5915 96.498378 278.93955 118.76831 231.68903 150.6138 191.15247 191.15096 150.6138 231.68901 118.76801 278.93955 96.49959 331.59089 73.40573 386.1883 61.69613 444.08924 61.69613 503.685L61.69608 503.68498Z" fill="#5189d4"/>
<path transform="matrix(0,.15075939,-.15075939,0,67.3125,417.24089)" d="M86.37452 503.68498H74.0353C74.0353 445.74909 85.41684 389.46589 107.86391 336.3982 129.51087 285.21696 160.46886 239.28409 199.87754 199.87662 239.2841 160.46855 285.21638 129.51055 336.3982 107.862689 389.46647 85.41652 445.7497 74.03528 503.68437 74.03528V86.3745C447.40959 86.3745 392.74409 97.42767 341.20497 119.22706 291.4938 140.25283 246.87984 170.32276 208.60266 208.60173 170.32308 246.88011 140.25316 291.4944 119.228298 341.20494 97.42801 392.74345 86.37453 447.40956 86.37453 503.68495L86.37452 503.68498Z" fill="#5189d4"/>
<path transform="matrix(0,.15075939,-.15075939,0,67.3125,417.24089)" d="M111.05295 503.68498H98.71373C98.71373 449.0713 109.43945 396.02229 130.59265 346.01173 150.99515 297.7725 180.17726 254.47678 217.32778 217.32749 254.47556 180.17758 297.77128 150.99546 346.01173 130.59207 396.0211 109.43917 449.0701 98.71375 503.6844 98.71375V111.05297C450.7306 111.05297 399.2987 121.45033 350.81849 141.95644 304.04878 161.73775 262.07194 190.03179 226.05292 226.0526 190.0315 262.0728 161.73777 304.04997 141.95706 350.81849 121.45064 399.29994 111.05298 450.73179 111.05298 503.685L111.05295 503.68498Z" fill="#5189d4"/>
<path transform="matrix(0,.15075939,-.15075939,0,67.3125,417.24089)" d="M135.73139 503.68498H123.392169C123.392169 452.39106 133.46176 402.5769 153.3214 355.6258 172.47911 310.3292 199.88477 269.67 234.7774 234.77768 269.66764 199.88625 310.32679 172.48 355.6252 153.32077 402.5769 133.46144 452.39106 123.392139 503.6844 123.392139V135.73136C454.05158 135.73136 405.85453 145.47289 360.432 164.68514 316.6049 183.22258 277.264 209.74045 243.50287 243.50278 209.73934 277.26573 183.22147 316.60664 164.68582 360.43254 145.47298 405.85447 135.73145 454.0515 135.73145 503.68495L135.73139 503.68498Z" fill="#5189d4"/>
<path transform="matrix(0,.15075939,-.15075939,0,67.3125,417.24089)" d="M160.40982 503.68498H148.0706C148.0706 455.71266 157.48438 409.1327 176.05014 365.23933 193.9649 322.8829 219.59468 284.8603 252.22763 252.22794 284.86088 219.59439 322.8829 193.9646 365.2387 176.05014 409.1321 157.48438 455.71205 148.0706 503.68437 148.0706V160.40982C457.37193 160.40982 412.4097 169.49553 370.04548 187.4145 329.16099 204.70688 292.4566 229.44889 260.95307 260.95307 229.4492 292.45664 204.7072 329.16038 187.41452 370.04609 169.49555 412.4103 160.40984 457.37257 160.40984 503.685L160.40982 503.68498Z" fill="#5189d4"/>
<path transform="matrix(0,.15075939,-.15075939,0,67.3125,417.24089)" d="M185.08826 503.68498H172.74904C172.74904 459.03364 181.50669 415.68794 198.77889 374.8528 215.45038 335.43724 239.30399 300.05116 269.67787 269.67817 300.05174 239.30399 335.4372 215.45008 374.8522 198.77887 415.68733 181.50669 459.03303 172.74903 503.68437 172.74903V185.08824C460.6929 185.08824 418.9649 193.51784 379.65898 210.14325 341.71528 226.19237 307.64747 249.15819 278.40327 278.4033 249.15848 307.64689 226.19266 341.7147 210.14322 379.65959 193.5178 418.9655 185.08823 460.69355 185.08823 503.68498H185.08826Z" fill="#5189d4"/>
<path transform="matrix(0,.15075939,-.15075939,0,67.3125,417.24089)" d="M209.7667 503.68498H197.42748C197.42748 462.3546 205.5293 422.2437 221.50763 384.4663 236.93376 347.99394 259.0118 315.245 287.1281 287.12809 315.2438 259.0124 347.99275 236.93465 384.46574 221.50762 422.24314 205.5293 462.354 197.42746 503.6844 197.42746V209.76668C464.01454 209.76668 425.52076 217.54045 389.2725 232.87198 354.2702 247.67693 322.83955 268.86689 295.85353 295.85353 268.8657 322.84074 247.67575 354.2714 232.8723 389.27308 217.54047 425.52134 209.7667 464.0151 209.7667 503.68498Z" fill="#5189d4"/>
<path transform="matrix(0,.15075939,-.15075939,0,67.3125,417.24089)" d="M234.44483 503.68498H222.10591C222.10591 465.675 229.55162 428.79835 244.23607 394.07984 258.41896 360.54887 278.72084 330.43647 304.57835 304.57835 330.43647 278.7208 360.54887 258.41865 394.07984 244.23638 428.79835 229.55162 465.675 222.10591 503.68498 222.10591V234.44513C467.3349 234.44513 432.07594 241.56307 398.88658 255.60074 366.8263 269.16123 338.03218 288.57533 313.30375 313.30375 288.57533 338.03218 269.16093 366.8263 255.60103 398.88658 241.56276 432.07594 234.44483 467.33488 234.44483 503.68498Z" fill="#5189d4"/>
</g>
<g clip-path="url(#clip_45)">
<g clip-path="url(#clip_46)">
<g clip-path="url(#clip_47)">
<g clip-path="url(#clip_48)">
<g>
<g clip-path="url(#clip_49)">
<path transform="matrix(0,-.086981568,.086981568,0,52.31872,468.37287)" d="M0 0H256V1489H0Z" fill="#004aad"/>
</g>
</g>
</g>
</g>
</g>
</g>
<g clip-path="url(#clip_50)">
<g clip-path="url(#clip_51)">
<g clip-path="url(#clip_52)">
<g clip-path="url(#clip_53)">
<g>
<g clip-path="url(#clip_54)">
<path transform="matrix(.10313394,0,0,.10313394,12.673855,171.60984)" d="M0 0H256V256H0Z" fill="#5189d4"/>
</g>
</g>
</g>
</g>
</g>
</g>
<g clip-path="url(#clip_55)">
<g clip-path="url(#clip_56)">
<g clip-path="url(#clip_57)">
<g clip-path="url(#clip_58)">
<g>
<g clip-path="url(#clip_59)">
<path transform="matrix(.10313394,0,0,.10313394,12.673855,222.28543)" d="M0 0H256V256H0Z" fill="#5189d4"/>
</g>
</g>
</g>
</g>
</g>
</g>
<g clip-path="url(#clip_60)">
<g clip-path="url(#clip_61)">
<g clip-path="url(#clip_62)">
<g clip-path="url(#clip_63)">
<g>
<g clip-path="url(#clip_64)">
<path transform="matrix(.10313394,0,0,.10313394,12.673855,277.88038)" d="M0 0H256V256H0Z" fill="#5189d4"/>
</g>
</g>
</g>
</g>
</g>
</g>
<g clip-path="url(#clip_65)">
<g clip-path="url(#clip_66)">
<g clip-path="url(#clip_67)">
<g clip-path="url(#clip_68)">
<g>
<g clip-path="url(#clip_69)">
<path transform="matrix(.10313394,0,0,.10313394,12.673855,330.81346)" d="M0 0H256V256H0Z" fill="#5189d4"/>
</g>
</g>
</g>
</g>
</g>
</g>
<g clip-path="url(#clip_70)">
<g clip-path="url(#clip_71)">
<g clip-path="url(#clip_72)">
<g clip-path="url(#clip_73)">
<g>
<g clip-path="url(#clip_74)">
<path transform="matrix(.10313394,0,0,.10313394,12.673855,380.81333)" d="M0 0H256V256H0Z" fill="#5189d4"/>
</g>
</g>
</g>
</g>
</g>
</g>
<g clip-path="url(#clip_75)">
<g clip-path="url(#clip_76)">
<g clip-path="url(#clip_77)">
<g clip-path="url(#clip_78)">
<g>
<g clip-path="url(#clip_79)">
<path transform="matrix(.10616978,0,0,.10616978,127.007259,63.850748)" d="M0 0H256V256H0Z" fill="#5189d4"/>
</g>
</g>
</g>
</g>
</g>
</g>
<g clip-path="url(#clip_80)">
<g>
<g clip-path="url(#clip_81)">
<text fill="#ffffff" xml:space="preserve" transform="matrix(.21562499 0 0 .21562499 12.673856 178.45005)" font-size="42.66" font-family="Canva Sans" font-weight="bold"><tspan y="45" x="35.09375 64.857318">01</tspan></text>
</g>
</g>
<g>
<g clip-path="url(#clip_82)">
<text fill="#ffffff" xml:space="preserve" transform="matrix(.21562499 0 0 .21562499 12.673856 229.17183)" font-size="42.66" font-family="Canva Sans" font-weight="bold"><tspan y="45" x="34.453126 64.21669">02</tspan></text>
</g>
</g>
<g>
<g clip-path="url(#clip_83)">
<text fill="#ffffff" xml:space="preserve" transform="matrix(.21562499 0 0 .21562499 12.673857 284.72288)" font-size="42.66" font-family="Canva Sans" font-weight="bold"><tspan y="45" x="33.734376 63.49794">03</tspan></text>
</g>
</g>
<g>
<g clip-path="url(#clip_84)">
<text fill="#ffffff" xml:space="preserve" transform="matrix(.21562499 0 0 .21562499 12.673857 337.65596)" font-size="42.66" font-family="Canva Sans" font-weight="bold"><tspan y="45" x="33.0625 62.826066">04</tspan></text>
</g>
</g>
<g>
<g clip-path="url(#clip_85)">
<text fill="#ffffff" xml:space="preserve" transform="matrix(.21562499 0 0 .21562499 12.673857 387.65357)" font-size="42.66" font-family="Canva Sans" font-weight="bold"><tspan y="45" x="33.5 63.263566">05</tspan></text>
</g>
</g>
<g>
<g clip-path="url(#clip_86)">
<text fill="#ffffff" xml:space="preserve" transform="matrix(.21562499 0 0 .21562499 12.673855 32.234685)" font-size="76.05" font-family="Montserrat" font-weight="bold"><tspan y="66" x="0 54.450578 118.55911 149.3591">FAIZ</tspan></text>
<text fill="#ffffff" xml:space="preserve" transform="matrix(.21562499 0 0 .21562499 12.673855 32.234685)" font-size="76.05" font-family="Montserrat" font-weight="bold"><tspan y="145" x="0 61.599 131.6392 210.12062 271.64356 337.42515 390.27876 447.1628">COMPUTER</tspan></text>
<text fill="#ffffff" xml:space="preserve" transform="matrix(.21562499 0 0 .21562499 12.673855 32.234685)" font-size="76.05" font-family="Montserrat" font-weight="bold"><tspan y="145" x="508.92189"> </tspan></text>
<text fill="#ffffff" xml:space="preserve" transform="matrix(.21562499 0 0 .21562499 12.673855 32.234685)" font-size="76.05" font-family="Montserrat" font-weight="bold"><tspan y="224" x="0 30.799988 98.10251 152.47704 205.33063 236.13062 288.9842 354.76579 407.6194">INSTITUTE</tspan></text>
</g>
</g>
</g>
<g clip-path="url(#clip_87)">
<g clip-path="url(#clip_88)">
<g clip-path="url(#clip_89)">
<g clip-path="url(#clip_90)">
<g>
<g clip-path="url(#clip_91)">
<path transform="matrix(.04021796,0,0,.04021796,135.4491,72.29258)" d="M0 0H256V256H0Z" fill="#fdfdfd"/>
</g>
</g>
</g>
</g>
</g>
</g>
<g clip-path="url(#clip_92)">
<g>
<g clip-path="url(#clip_93)">
<text fill="#ffffff" xml:space="preserve" transform="matrix(.21562499 0 0 .21562499 67.31518 166.87496)" font-size="37.31" font-family="Montserrat"><tspan y="38" x="0 30.807129 62.09912 88.84091 115.619998 125.391757 139.63912 149.41088 180.218 191.48163 218.26071 240.22852 271.5205 307.13893 333.88075 343.65248 354.9161">DOAP - DIPLOMA IN</tspan></text>
<text fill="#ffffff" xml:space="preserve" transform="matrix(.21562499 0 0 .21562499 67.31518 166.87496)" font-size="37.31" font-family="Montserrat"><tspan y="90" x="0 31.291993 54.90085 78.509708 89.77333 116.58971 141.54125 151.313 178.0548 207.59384 229.00218 260.2942 295.9126 322.6544 344.06275 355.32637 386.61836">OFFICE AUTOMATION</tspan></text>
<text fill="#ffffff" xml:space="preserve" transform="matrix(.21562499 0 0 .21562499 67.31518 166.87496)" font-size="37.31" font-family="Montserrat"><tspan y="90" x="416.95314"> </tspan></text>
<text fill="#ffffff" xml:space="preserve" transform="matrix(.21562499 0 0 .21562499 67.31518 166.87496)" font-size="37.31" font-family="Montserrat"><tspan y="142" x="0 26.74179 57.06407 87.8712 97.64296 124.42204 153.96109 182.08286 204.05066 215.31429 238.2518 268.5741 279.8377 310.15998">AND PUBLISHING</tspan></text>
</g>
</g>
<g>
<g clip-path="url(#clip_94)">
<text fill="#ffffff" xml:space="preserve" transform="matrix(.21562499 0 0 .21562499 65.751499 219.26725)" font-size="37.31" font-family="Montserrat"><tspan y="38" x="0 24.69046 34.46222 56.430025 81.38156 107.4147 132.36624 154.33405 164.1058 189.05735 198.8291 225.64548 252.46186 279.27824 289.05 296.9569 306.72868 333.47047 364.2776 391.09397 417.83576">0 LEVEL &#x0026; CCC , ADCA,</tspan></text>
<text fill="#ffffff" xml:space="preserve" transform="matrix(.21562499 0 0 .21562499 65.751499 219.26725)" font-size="37.31" font-family="Montserrat"><tspan y="90" x="0 30.807129 57.623506 84.365299 92.27222 102.043979 132.36626 153.7746 175.18294 184.9547 192.86162 202.63338 233.4405 260.2569 286.99867 313.74049 323.5122 331.41914 341.19093 367.93269 398.7398">DCA, NTT , DCAA , AD.</tspan></text>
<text fill="#ffffff" xml:space="preserve" transform="matrix(.21562499 0 0 .21562499 65.751499 219.26725)" font-size="37.31" font-family="Montserrat"><tspan y="142" x="0 24.951539 49.41823 76.234607 101.18614">EXCEL</tspan></text>
</g>
</g>
<g>
<g clip-path="url(#clip_95)">
<text fill="#ffffff" xml:space="preserve" transform="matrix(.21562499 0 0 .21562499 67.31518 272.1997)" font-size="37.31" font-family="Montserrat"><tspan y="38" x="0 28.830399 55.79596 82.53775 113.34488 142.88393 169.62572 191.03406 202.29769 233.58968 263.91197 273.68373 300.4255 330.7478">GRADUATION AND</tspan></text>
<text fill="#ffffff" xml:space="preserve" transform="matrix(.21562499 0 0 .21562499 67.31518 272.1997)" font-size="37.31" font-family="Montserrat"><tspan y="90" x="0 26.779084 58.071077 81.00859 102.41693 112.18869 141.01909 167.98465 194.72644 225.53357 255.07262 281.8144 303.22276 314.4864 345.77839">POST GRADUATION</tspan></text>
<text fill="#ffffff" xml:space="preserve" transform="matrix(.21562499 0 0 .21562499 67.31518 272.1997)" font-size="37.31" font-family="Montserrat"><tspan y="142" x="0 26.816376 58.108369 87.647418 114.612979 137.55049 162.50203">COURSES</tspan></text>
</g>
</g>
<g>
<g clip-path="url(#clip_96)">
<text fill="#ffffff" xml:space="preserve" transform="matrix(.21562499 0 0 .21562499 67.31518 330.0418)" font-size="37.31" font-family="Montserrat"><tspan y="38" x="0 13.464142 38.154603 47.92636 72.8779 82.64966 96.1138 117.29837 127.07013 157.39241 168.65604 199.94803">10 &#x0026; 12 NIOS</tspan></text>
<text fill="#ffffff" xml:space="preserve" transform="matrix(.21562499 0 0 .21562499 67.31518 330.0418)" font-size="37.31" font-family="Montserrat"><tspan y="38" x="222.89063"> </tspan></text>
<text fill="#ffffff" xml:space="preserve" transform="matrix(.21562499 0 0 .21562499 67.31518 330.0418)" font-size="37.31" font-family="Montserrat"><tspan y="90" x="0 13.464142 38.154603 47.92636 72.8779 82.64966 96.1138 117.29837 127.07013 155.1919 186.48389 209.4214 232.35892 257.31047 267.0822 295.20399 326.49598 353.23777 380.2033">10 &#x0026; 12 BOSSE BOARD</tspan></text>
</g>
</g>
<g>
<g clip-path="url(#clip_97)">
<text fill="#ffffff" xml:space="preserve" transform="matrix(.21562499 0 0 .21562499 67.31518 383.552)" font-size="37.31" font-family="Montserrat"><tspan y="38" x="0 23.608857 50.574419 75.525959 100.47749 110.24925 137.06563 168.35762 197.89667 224.86223 247.79975 272.75129 295.68879 305.46058 332.20234 354.17018 377.10768">FREE COURSES ALSO</tspan></text>
<text fill="#ffffff" xml:space="preserve" transform="matrix(.21562499 0 0 .21562499 67.31518 383.552)" font-size="37.31" font-family="Montserrat"><tspan y="90" x="0 26.74179 52.774934 79.51672 90.78035 112.74815 139.48995 167.61171 189.57952">AVAILABLE</tspan></text>
</g>
</g>
<g>
<g clip-path="url(#clip_98)">
<text fill="#ffffff" xml:space="preserve" transform="matrix(.18482779 0 0 .18482779 57.2783 447.63029)" font-size="37.31" font-family="Montserrat"><tspan y="38" x="0 32.78386 65.56772 98.35158 106.2585 118.9021 140.9072 150.94004 169.99869 190.99677 214.38184 253.9537 279.2409 304.34165 319.48414 342.01139 356.9674 367.00025 392.25013 410.48829 425.63075 435.66358 450.8061 475.9068 491.0493 513.57656 521.48348 542.48159 565.8666">www.faizcomputerinstitute.com</tspan></text>
<text fill="#ffffff" xml:space="preserve" transform="matrix(.18482779 0 0 .18482779 57.2783 447.63029)" font-size="37.31" font-family="Montserrat"><tspan y="90" x="0 32.78386 65.56772 98.35158 106.2585 118.9021 140.9072 150.94004 169.99869 190.99677 214.38184 253.9537 279.2409 304.34165 319.48414 342.01139 356.9674 367.00025 392.25013 410.48829 425.63075 435.66358 450.8061 475.9068 491.0493 513.57656 521.48348 531.5163">www.faizcomputerinstitute.in</tspan></text>
</g>
</g>
</g>
<g clip-path="url(#clip_99)">
<g clip-path="url(#clip_100)">
<g clip-path="url(#clip_101)">
<g clip-path="url(#clip_102)">
<g>
<g clip-path="url(#clip_103)">
<path transform="matrix(0,.14086545,-.14086545,0,147.24173,110.46713)" d="M0 0H256V874H0Z" fill="#004aad"/>
</g>
</g>
</g>
</g>
</g>
</g>
<g clip-path="url(#clip_104)">
<g>
<g clip-path="url(#clip_105)">
<text fill="#ffffff" xml:space="preserve" transform="matrix(.21562499 0 0 .21562499 39.076147 120.765819)" font-size="76.05" font-family="Montserrat" font-weight="bold"><tspan y="66" x="0 61.599 131.6392 197.42078 259.17189 313.5464 370.43049">COURSES</tspan></text>
</g>
</g>
</g>
<g clip-path="url(#clip_106)">
<g clip-path="url(#clip_107)">
<g clip-path="url(#clip_108)">
<g clip-path="url(#clip_109)">
<g>
<g clip-path="url(#clip_110)">
<path transform="matrix(0,.25521014,-.25521014,0,175.48178,484.87025)" d="M0 0H256V841H0Z" fill="#004aad"/>
</g>
</g>
</g>
</g>
</g>
</g>
<g clip-path="url(#clip_111)">
<g>
<g clip-path="url(#clip_112)">
<text fill="#ffffff" xml:space="preserve" transform="matrix(.6704374 0 0 .6704374 2.3712159 490.82048)" font-size="12" font-family="Montserrat"><tspan y="11" x="26.515625 33.41568 40.723726 45.055757 48.199785 55.507829 62.575883 69.39194 73.72397 81.38002 88.688068 95.99611 103.65216 110.960208 115.29224 118.436267 121.97629 125.51631 128.66034 135.5604 138.70442 146.01247 150.3445 153.48853 160.55658 168.50064 176.4447 183.51276 191.16881 198.47686 205.29291 209.62494 216.39299">+91 9721896891 || + 91 7007862136</tspan></text>
</g>
</g>
<g>
<g clip-path="url(#clip_113)">
<text fill="#ffffff" xml:space="preserve" transform="matrix(.6704374 0 0 .6704374 0 506.81489)" font-size="12" font-family="Montserrat"><tspan y="11" x="3.84375 12.471817 20.595871 27.675919 32.487947 39.567995 47.692049 50.836076 59.452135 62.68016 69.76021 75.89226 82.972309 86.11633 88.660358 91.80438 95.428409 103.55246 107.62048 112.43251 119.95656 128.08061 132.95265 136.09668 146.16475 150.23278 153.3768 164.83689 171.91693 177.78498 181.073 184.30103 192.43709 195.58112 202.46916 209.71721 212.94524 216.17327 224.30933 231.38938 239.62143 247.74549 250.88951">Charan Plaza , Infront Of Masjid Telibagh ,</tspan></text>
<text fill="#ffffff" xml:space="preserve" transform="matrix(.6704374 0 0 .6704374 0 506.81489)" font-size="12" font-family="Montserrat"><tspan y="27" x="100.984378 108.05243 116.12848 122.88452 130.09658 138.22063 145.74468">Lucknow</tspan></text>
</g>
</g>
</g>
<path transform="matrix(1,0,0,-1,0,549.12)" d="M118.59495 440.83998H226.40506V548.6501H118.59495Z" fill-opacity="0"/>
<path transform="matrix(1,0,0,-1,0,549.12)" d="M-8.625 55.93895H67.31518V131.87912H-8.625Z" fill-opacity="0"/>
</g>
</svg>
