<svg xmlns="http://www.w3.org/2000/svg" version="1.1" xmlns:xlink="http://www.w3.org/1999/xlink" xmlns:svgjs="http://svgjs.dev/svgjs" viewBox="0 0 800 800" opacity="1"><defs><linearGradient x1="50%" y1="0%" x2="50%" y2="100%" id="vvvortex-grad"><stop stop-color="hsl(240, 100%, 67%)" stop-opacity="1" offset="0%"></stop><stop stop-color="hsl(226, 93%, 43%)" stop-opacity="1" offset="100%"></stop></linearGradient></defs><g stroke="url(#vvvortex-grad)" fill="none" stroke-linecap="square"><circle r="450" cx="400" cy="400" stroke-width="6" stroke-dasharray="41 13" stroke-dashoffset="25" transform="rotate(304, 400, 400)" opacity="1.00"></circle><circle r="432" cx="400" cy="400" stroke-width="5" stroke-dasharray="40 51" stroke-dashoffset="25" transform="rotate(124, 400, 400)" opacity="0.96"></circle><circle r="414" cx="400" cy="400" stroke-width="5" stroke-dasharray="18 12" stroke-dashoffset="25" transform="rotate(356, 400, 400)" opacity="0.92"></circle><circle r="396" cx="400" cy="400" stroke-width="5" stroke-dasharray="31 34" stroke-dashoffset="25" transform="rotate(130, 400, 400)" opacity="0.88"></circle><circle r="378" cx="400" cy="400" stroke-width="5" stroke-dasharray="42 31" stroke-dashoffset="25" transform="rotate(179, 400, 400)" opacity="0.84"></circle><circle r="360" cx="400" cy="400" stroke-width="5" stroke-dasharray="14 38" stroke-dashoffset="25" transform="rotate(348, 400, 400)" opacity="0.80"></circle><circle r="342" cx="400" cy="400" stroke-width="5" stroke-dasharray="26 36" stroke-dashoffset="25" transform="rotate(215, 400, 400)" opacity="0.76"></circle><circle r="324" cx="400" cy="400" stroke-width="4" stroke-dasharray="16 54" stroke-dashoffset="25" transform="rotate(26, 400, 400)" opacity="0.72"></circle><circle r="306" cx="400" cy="400" stroke-width="4" stroke-dasharray="31 40" stroke-dashoffset="25" transform="rotate(333, 400, 400)" opacity="0.68"></circle><circle r="288" cx="400" cy="400" stroke-width="4" stroke-dasharray="19 25" stroke-dashoffset="25" transform="rotate(36, 400, 400)" opacity="0.64"></circle><circle r="270" cx="400" cy="400" stroke-width="4" stroke-dasharray="22 32" stroke-dashoffset="25" transform="rotate(337, 400, 400)" opacity="0.60"></circle><circle r="252" cx="400" cy="400" stroke-width="4" stroke-dasharray="52 14" stroke-dashoffset="25" transform="rotate(52, 400, 400)" opacity="0.56"></circle><circle r="234" cx="400" cy="400" stroke-width="4" stroke-dasharray="15 20" stroke-dashoffset="25" transform="rotate(235, 400, 400)" opacity="0.53"></circle><circle r="216" cx="400" cy="400" stroke-width="3" stroke-dasharray="52 16" stroke-dashoffset="25" transform="rotate(227, 400, 400)" opacity="0.49"></circle><circle r="198" cx="400" cy="400" stroke-width="3" stroke-dasharray="13 30" stroke-dashoffset="25" transform="rotate(321, 400, 400)" opacity="0.45"></circle><circle r="180" cx="400" cy="400" stroke-width="3" stroke-dasharray="45 20" stroke-dashoffset="25" transform="rotate(108, 400, 400)" opacity="0.41"></circle><circle r="162" cx="400" cy="400" stroke-width="3" stroke-dasharray="49 44" stroke-dashoffset="25" transform="rotate(162, 400, 400)" opacity="0.37"></circle><circle r="144" cx="400" cy="400" stroke-width="3" stroke-dasharray="46 15" stroke-dashoffset="25" transform="rotate(325, 400, 400)" opacity="0.33"></circle><circle r="126" cx="400" cy="400" stroke-width="3" stroke-dasharray="15 45" stroke-dashoffset="25" transform="rotate(321, 400, 400)" opacity="0.29"></circle><circle r="108" cx="400" cy="400" stroke-width="2" stroke-dasharray="15 22" stroke-dashoffset="25" transform="rotate(237, 400, 400)" opacity="0.25"></circle><circle r="90" cx="400" cy="400" stroke-width="2" stroke-dasharray="26 52" stroke-dashoffset="25" transform="rotate(97, 400, 400)" opacity="0.21"></circle><circle r="72" cx="400" cy="400" stroke-width="2" stroke-dasharray="38 27" stroke-dashoffset="25" transform="rotate(308, 400, 400)" opacity="0.17"></circle><circle r="54" cx="400" cy="400" stroke-width="2" stroke-dasharray="21 46" stroke-dashoffset="25" transform="rotate(226, 400, 400)" opacity="0.13"></circle><circle r="36" cx="400" cy="400" stroke-width="2" stroke-dasharray="25 26" stroke-dashoffset="25" transform="rotate(59, 400, 400)" opacity="0.09"></circle><circle r="18" cx="400" cy="400" stroke-width="2" stroke-dasharray="50 30" stroke-dashoffset="25" transform="rotate(347, 400, 400)" opacity="0.05"></circle></g></svg>